<mxfile host="app.diagrams.net" modified="2022-01-06T07:27:04.191Z" agent="5.0 (Macintosh; Intel Mac OS X 10_15_7) AppleWebKit/537.36 (KHTML, like Gecko) Chrome/96.0.4664.110 Safari/537.36 Edg/96.0.1054.62" etag="T53czwLJuO_eUjFK1oKh" version="16.1.0" type="github">
  <diagram id="X8HzsIV4dMoVicDRNnzI" name="Page-1">
    <mxGraphModel dx="1777" dy="700" grid="1" gridSize="10" guides="1" tooltips="1" connect="1" arrows="1" fold="1" page="1" pageScale="1" pageWidth="827" pageHeight="1169" math="0" shadow="0">
      <root>
        <mxCell id="0" />
        <mxCell id="1" parent="0" />
        <mxCell id="ux-4OhOQtNP5RTbQ7YAH-3" value="" style="edgeStyle=orthogonalEdgeStyle;rounded=0;orthogonalLoop=1;jettySize=auto;html=1;" edge="1" parent="1" source="ux-4OhOQtNP5RTbQ7YAH-1" target="ux-4OhOQtNP5RTbQ7YAH-2">
          <mxGeometry relative="1" as="geometry" />
        </mxCell>
        <mxCell id="ux-4OhOQtNP5RTbQ7YAH-1" value="native pasteboard&lt;br&gt;" style="rounded=1;whiteSpace=wrap;html=1;" vertex="1" parent="1">
          <mxGeometry x="80" y="160" width="120" height="60" as="geometry" />
        </mxCell>
        <mxCell id="ux-4OhOQtNP5RTbQ7YAH-5" value="" style="edgeStyle=orthogonalEdgeStyle;rounded=0;orthogonalLoop=1;jettySize=auto;html=1;" edge="1" parent="1" source="ux-4OhOQtNP5RTbQ7YAH-2" target="ux-4OhOQtNP5RTbQ7YAH-4">
          <mxGeometry relative="1" as="geometry" />
        </mxCell>
        <mxCell id="ux-4OhOQtNP5RTbQ7YAH-2" value="notification" style="whiteSpace=wrap;html=1;rounded=1;" vertex="1" parent="1">
          <mxGeometry x="280" y="160" width="120" height="60" as="geometry" />
        </mxCell>
        <mxCell id="ux-4OhOQtNP5RTbQ7YAH-7" value="" style="edgeStyle=orthogonalEdgeStyle;rounded=0;orthogonalLoop=1;jettySize=auto;html=1;" edge="1" parent="1" source="ux-4OhOQtNP5RTbQ7YAH-4" target="ux-4OhOQtNP5RTbQ7YAH-6">
          <mxGeometry relative="1" as="geometry" />
        </mxCell>
        <mxCell id="ux-4OhOQtNP5RTbQ7YAH-4" value="fetch pasteboard item" style="whiteSpace=wrap;html=1;rounded=1;" vertex="1" parent="1">
          <mxGeometry x="280" y="300" width="120" height="60" as="geometry" />
        </mxCell>
        <mxCell id="ux-4OhOQtNP5RTbQ7YAH-9" value="" style="edgeStyle=orthogonalEdgeStyle;rounded=0;orthogonalLoop=1;jettySize=auto;html=1;" edge="1" parent="1" source="ux-4OhOQtNP5RTbQ7YAH-6" target="ux-4OhOQtNP5RTbQ7YAH-8">
          <mxGeometry relative="1" as="geometry" />
        </mxCell>
        <mxCell id="ux-4OhOQtNP5RTbQ7YAH-13" value="" style="edgeStyle=orthogonalEdgeStyle;rounded=0;orthogonalLoop=1;jettySize=auto;html=1;" edge="1" parent="1" source="ux-4OhOQtNP5RTbQ7YAH-6" target="ux-4OhOQtNP5RTbQ7YAH-12">
          <mxGeometry relative="1" as="geometry" />
        </mxCell>
        <mxCell id="ux-4OhOQtNP5RTbQ7YAH-15" value="" style="edgeStyle=orthogonalEdgeStyle;rounded=0;orthogonalLoop=1;jettySize=auto;html=1;" edge="1" parent="1" source="ux-4OhOQtNP5RTbQ7YAH-6" target="ux-4OhOQtNP5RTbQ7YAH-14">
          <mxGeometry relative="1" as="geometry" />
        </mxCell>
        <mxCell id="ux-4OhOQtNP5RTbQ7YAH-6" value="create ClipItem&amp;lt;T&amp;gt;" style="whiteSpace=wrap;html=1;rounded=1;" vertex="1" parent="1">
          <mxGeometry x="280" y="440" width="120" height="60" as="geometry" />
        </mxCell>
        <mxCell id="ux-4OhOQtNP5RTbQ7YAH-11" value="" style="edgeStyle=orthogonalEdgeStyle;rounded=0;orthogonalLoop=1;jettySize=auto;html=1;" edge="1" parent="1" source="ux-4OhOQtNP5RTbQ7YAH-8" target="ux-4OhOQtNP5RTbQ7YAH-10">
          <mxGeometry relative="1" as="geometry" />
        </mxCell>
        <mxCell id="ux-4OhOQtNP5RTbQ7YAH-8" value="save in db" style="whiteSpace=wrap;html=1;rounded=1;" vertex="1" parent="1">
          <mxGeometry x="280" y="580" width="120" height="60" as="geometry" />
        </mxCell>
        <mxCell id="ux-4OhOQtNP5RTbQ7YAH-10" value="read from db" style="whiteSpace=wrap;html=1;rounded=1;" vertex="1" parent="1">
          <mxGeometry x="480" y="580" width="120" height="60" as="geometry" />
        </mxCell>
        <mxCell id="ux-4OhOQtNP5RTbQ7YAH-12" value="save image in app path" style="whiteSpace=wrap;html=1;rounded=1;" vertex="1" parent="1">
          <mxGeometry x="100" y="580" width="120" height="60" as="geometry" />
        </mxCell>
        <mxCell id="ux-4OhOQtNP5RTbQ7YAH-14" value="save file in app path" style="whiteSpace=wrap;html=1;rounded=1;" vertex="1" parent="1">
          <mxGeometry x="-80" y="580" width="120" height="60" as="geometry" />
        </mxCell>
      </root>
    </mxGraphModel>
  </diagram>
</mxfile>
